<svg width="30" height="31" viewBox="0 0 30 31" fill="none" xmlns="http://www.w3.org/2000/svg">
<path d="M18.7422 15.5L29.217 5.02527C29.7141 4.52901 29.9937 3.8556 29.9944 3.15318C29.995 2.45075 29.7165 1.77685 29.2203 1.27972C28.724 0.782592 28.0506 0.50296 27.3482 0.502339C26.6458 0.501719 25.9719 0.780162 25.4747 1.27641L15 11.7511L4.52527 1.27641C4.02814 0.779284 3.35389 0.5 2.65084 0.5C1.94779 0.5 1.27354 0.779284 0.776413 1.27641C0.279284 1.77354 0 2.44779 0 3.15084C0 3.85389 0.279284 4.52814 0.776413 5.02527L11.2511 15.5L0.776413 25.9747C0.279284 26.4719 0 27.1461 0 27.8492C0 28.5522 0.279284 29.2265 0.776413 29.7236C1.27354 30.2207 1.94779 30.5 2.65084 30.5C3.35389 30.5 4.02814 30.2207 4.52527 29.7236L15 19.2489L25.4747 29.7236C25.9719 30.2207 26.6461 30.5 27.3492 30.5C28.0522 30.5 28.7265 30.2207 29.2236 29.7236C29.7207 29.2265 30 28.5522 30 27.8492C30 27.1461 29.7207 26.4719 29.2236 25.9747L18.7422 15.5Z" fill="#F9F9F9"/>
</svg>
